PathFileType	4	(X/Y/Z)	./resultDataOpenSim/trcMotMarkerGrf/sub09/qtm-05-03.trc
DataRate	CameraRate	NumFrames	NumMarkers	Units	OrigDataRate	OrigDataStartFrame	OrigNumFrames
250.000000	250.000000	15	24	m	250.000000	448	511
Frame#	Time	L.Toe.Tip			R.Toe.Tip			L.Ankle.Lat			R.Ankle.Lat			L.Ankle.Med			R.Ankle.Med			L.Heel			R.Heel			L.Knee.Lat			R.Knee.Lat			L.Knee.Med			R.Knee.Med			L.Thigh.Upper			R.Thigh.Upper			L.ASIS			R.ASIS			V.Sacral			L.Acromium			R.Acromium			C7			L.Elbow			R.Elbow			L.Wrist.Lat			R.Wrist.Lat
		X1	Y1	Z1	X2	Y2	Z2	X3	Y3	Z3	X4	Y4	Z4	X5	Y5	Z5	X6	Y6	Z6	X7	Y7	Z7	X8	Y8	Z8	X9	Y9	Z9	X10	Y10	Z10	X11	Y11	Z11	X12	Y12	Z12	X13	Y13	Z13	X14	Y14	Z14	X15	Y15	Z15	X16	Y16	Z16	X17	Y17	Z17	X18	Y18	Z18	X19	Y19	Z19	X20	Y20	Z20	X21	Y21	Z21	X22	Y22	Z22	X23	Y23	Z23	X24	Y24	Z24

448	1.788	1.7856188	0.062820618	0.061325048	1.0535337	0.042043798	0.16478659	1.6285378	0.074103008	0.031535615	0.93595415	0.12081149	0.21127933	1.6559217	0.098422933	0.12329652	0.96573564	0.15284488	0.12231011	1.5697761	0.030678964	0.085239306	0.86676101	0.13849567	0.16001755	1.5326066	0.47792795	-0.018266428	1.2345764	0.47893865	0.27360737	1.5406115	0.4766251	0.10875354	1.2220708	0.46863982	0.14632639	1.3605492	0.85743008	-0.062121582	1.3088322	0.87342868	0.30750102	1.4284444	0.9501524	0.005320432	1.4163057	0.95450892	0.24714093	1.2524094	1.0005772	0.1068018	1.381126	1.3991146	-0.05887235	1.3752921	1.4190835	0.27381634	1.3107316	1.4576954	0.10675796	1.2207501	1.0686215	-0.10960557	1.2514012	1.0693726	0.35986716	1.3065457	0.83017136	-0.17511319	1.4398933	0.86344326	0.3614586
449	1.792	1.7876831	0.058123795	0.062672307	1.0541427	0.042378822	0.16489678	1.6311112	0.073711865	0.03109534	0.93981672	0.1235987	0.2128184	1.6583859	0.097624361	0.12294895	0.96884533	0.15471693	0.12328736	1.5710044	0.031573067	0.084467491	0.86974178	0.14233192	0.16078036	1.5401294	0.47929169	-0.018812179	1.2420595	0.47763815	0.27384939	1.5473644	0.47817367	0.10802601	1.2293595	0.46696413	0.14658033	1.3667698	0.85757375	-0.062672886	1.315012	0.87188076	0.30699484	1.4342714	0.95026273	0.004839131	1.4223629	0.95334943	0.24669298	1.2581572	0.99998069	0.10680143	1.3865062	1.3985455	-0.059369818	1.3807174	1.4182738	0.27351493	1.3163468	1.4570257	0.10621365	1.227056	1.0674918	-0.10993923	1.2569949	1.0683727	0.35926507	1.3130783	0.82910332	-0.17521627	1.4449661	0.86209899	0.36177188
450	1.796	1.7895456	0.053566848	0.063908141	1.0547904	0.042751896	0.16511347	1.6334579	0.073336222	0.030652258	0.94224644	0.12690518	0.21441116	1.6606794	0.096850556	0.1225817	0.97222415	0.15665731	0.12428074	1.5721329	0.032405341	0.083681258	0.87300575	0.14636434	0.16146674	1.5477975	0.48075136	-0.01924069	1.249607	0.47640714	0.27425749	1.5543112	0.47990297	0.10717989	1.2371663	0.46518453	0.14710035	1.3730671	0.85793644	-0.063146932	1.3211629	0.87037777	0.30651775	1.4401296	0.95047697	0.004386645	1.4283477	0.95227752	0.24624977	1.2639268	0.99938622	0.10688225	1.3919009	1.3980511	-0.059850376	1.3861692	1.4175773	0.27318613	1.3218698	1.4563966	0.10567188	1.2334006	1.0664647	-0.11029226	1.2626227	1.0674826	0.3587147	1.3196871	0.82812212	-0.17527913	1.449948	0.86080408	0.36207292
451	1.8	1.791331	0.049566094	0.064935861	1.0554535	0.043113933	0.16548244	1.6357185	0.072935104	0.030295886	0.94192691	0.13092596	0.21573297	1.6626912	0.096064698	0.12236279	0.97585831	0.15871625	0.12528124	1.5731765	0.03321248	0.082853321	0.87655856	0.15060704	0.16208446	1.5556052	0.48212655	-0.019537444	1.2572755	0.47524694	0.2748142	1.5613881	0.48157487	0.10631484	1.2455408	0.46321636	0.14791705	1.379399	0.85849369	-0.063592411	1.3274049	0.86889525	0.30606533	1.4460207	0.95080072	0.0039686972	1.434269	0.95129257	0.24580052	1.2697281	0.99877794	0.10701898	1.3973146	1.3976174	-0.060296727	1.3916375	1.4169903	0.27282529	1.3272908	1.4558113	0.10515827	1.2397746	1.0655385	-0.11065653	1.2683338	1.0667634	0.3582383	1.3263754	0.82724502	-0.17530052	1.4548475	0.85957049	0.36235943
452	1.804	1.7930869	0.046532698	0.065636519	1.0561077	0.043418152	0.16583912	1.6379752	0.072509405	0.030157716	0.94050055	0.13551316	0.21681775	1.6643806	0.095291099	0.12243475	0.97974688	0.16092006	0.12629611	1.5741609	0.033958353	0.082057113	0.88039293	0.15507671	0.1626498	1.563468	0.48326513	-0.01971483	1.2650684	0.47415533	0.27548201	1.568491	0.4830162	0.10553512	1.2542209	0.46118324	0.14886357	1.3857138	0.85921447	-0.06404513	1.3337725	0.86742301	0.30561281	1.4519387	0.95123839	0.0035851231	1.4401475	0.9503804	0.24533513	1.2755313	0.99815694	0.10714027	1.4027451	1.3972428	-0.060697077	1.3971088	1.4164985	0.27243781	1.3326265	1.4552488	0.10469243	1.2461745	1.0646997	-0.11101164	1.2741514	1.0662432	0.35783571	1.3331444	0.82647723	-0.17528331	1.4596856	0.85840835	0.36262824
453	1.808	1.7947198	0.044565661	0.065950561	1.0567347	0.043669322	0.1660589	1.640145	0.072122631	0.030319705	0.94058014	0.14010058	0.21774008	1.6657495	0.094577498	0.12283829	0.98389721	0.16326504	0.12733872	1.5750834	0.034577854	0.08147542	0.88450519	0.15979693	0.16317875	1.5712576	0.48409046	-0.019803541	1.2729521	0.47310354	0.27624387	1.5755024	0.48415207	0.10490535	1.2629563	0.45927482	0.14979734	1.3919738	0.86006895	-0.064508085	1.3402323	0.86596787	0.30512908	1.457866	0.95178207	0.003227455	1.4460106	0.94952166	0.24484586	1.2813019	0.99753875	0.10719302	1.4081916	1.3969266	-0.061048879	1.4025865	1.4160834	0.27203647	1.3378898	1.454726	0.10429572	1.2525974	1.0639415	-0.11132183	1.2800045	1.065883	0.35744271	1.3399939	0.82581129	-0.17523227	1.4644786	0.85732334	0.36287427
454	1.812	1.7960701	0.043419602	0.066046341	1.0573461	0.043934732	0.16618115	1.6419976	0.071853678	0.030735383	0.94292856	0.14426647	0.21853134	1.6667729	0.093957644	0.12349561	0.9882982	0.16575933	0.128411	1.5758963	0.035020493	0.081246733	0.88890908	0.16478359	0.16369132	1.5789265	0.48462981	-0.019846936	1.2809325	0.47202606	0.27710324	1.5823324	0.48498377	0.10443499	1.2717566	0.45746342	0.15072519	1.3982067	0.86100896	-0.06498861	1.3466854	0.86454735	0.30459157	1.4637687	0.95241313	0.0028773158	1.451872	0.94870356	0.24432691	1.2870256	0.99694347	0.10718218	1.4136606	1.3966648	-0.061358939	1.4080776	1.4157321	0.27163576	1.3430907	1.4542751	0.10398552	1.2590367	1.0632711	-0.11155532	1.2857296	1.0655966	0.35693583	1.3469269	0.82523634	-0.17514984	1.4692321	0.8563165	0.36308935
455	1.816	1.7970619	0.042732129	0.066269334	1.0580109	0.04431048	0.1663073	1.6433081	0.071736905	0.031248307	0.94669049	0.14808023	0.2192632	1.6674163	0.093434068	0.12424831	0.99292973	0.16843449	0.12949501	1.5765465	0.035259245	0.081299732	0.89362452	0.17000986	0.16420554	1.5864955	0.48498025	-0.019905238	1.2890768	0.47088031	0.2780428	1.5889773	0.48556336	0.10408715	1.2807418	0.4555776	0.151675	1.4044765	0.86196068	-0.065510623	1.3530039	0.86319041	0.30400504	1.4696125	0.95310856	0.0025116007	1.4577233	0.94792722	0.24377709	1.2926982	0.99640014	0.10712092	1.4191588	1.3964524	-0.061638243	1.4135769	1.4154417	0.27124819	1.3482574	1.4538849	0.10374717	1.2654817	1.0626872	-0.1117142	1.2911988	1.0653246	0.35622272	1.3539494	0.82474482	-0.17504154	1.4739534	0.8553875	0.36326478
456	1.82	1.7977477	0.04224312	0.066800487	1.0588479	0.0448766	0.16650459	1.6440447	0.071746191	0.031699383	0.9509764	0.15181011	0.21997199	1.6677713	0.092993242	0.12492233	0.99779796	0.17130038	0.13056069	1.5770281	0.035309386	0.081403598	0.89865588	0.17539688	0.16471554	1.5939353	0.48523795	-0.020037665	1.2974864	0.46969165	0.2790055	1.5955214	0.48597635	0.1037971	1.2899214	0.45355583	0.15260759	1.4107828	0.8628522	-0.066078027	1.3591049	0.86192378	0.30340504	1.4753808	0.95384451	0.0021159942	1.4635397	0.94720285	0.24320464	1.2983157	0.99594172	0.10699486	1.4246852	1.396289	-0.061893527	1.4190728	1.4152159	0.27088574	1.3534362	1.4535271	0.10352956	1.2719179	1.0621669	-0.11183684	1.2964644	1.0650882	0.35534393	1.3610633	0.82433254	-0.17491778	1.4786568	0.8545365	0.36339614
457	1.824	1.798237	0.041846098	0.067488198	1.0599616	0.045665443	0.16678691	1.6444199	0.071809359	0.032010757	0.95546782	0.1556012	0.22063448	1.6680668	0.092632332	0.12540641	1.002938	0.1743117	0.13158156	1.5773832	0.035255707	0.081383377	0.90399185	0.18085032	0.16517908	1.6011275	0.48545214	-0.020266235	1.3062317	0.46850976	0.27992507	1.6020573	0.48631405	0.10349795	1.2992547	0.45144788	0.15350024	1.4170506	0.86363959	-0.066678332	1.3650054	0.86074031	0.30282816	1.4810703	0.95459626	0.0016891472	1.4692908	0.94654001	0.24262741	1.3038809	0.99557503	0.10679341	1.4302299	1.3961792	-0.06212652	1.4245523	1.4150597	0.27055848	1.3586563	1.453214	0.10328461	1.2783299	1.0616883	-0.11197097	1.3017105	1.0649511	0.35444468	1.3682632	0.82399534	-0.17478502	1.4833447	0.85376205	0.36348981
458	1.828	1.798624	0.041516281	0.06806411	1.061379	0.046655042	0.16714348	1.6447329	0.07183532	0.032170452	0.96027275	0.15944281	0.22121319	1.6684496	0.09235112	0.12569973	1.0083904	0.1773838	0.1325459	1.5776611	0.0352224	0.081241719	0.90962914	0.18630592	0.16553187	1.607942	0.48562543	-0.020579471	1.3152691	0.46736833	0.28076556	1.6085831	0.48664218	0.10315153	1.308789	0.44930333	0.15441329	1.4232017	0.86430425	-0.067308515	1.3708376	0.8596011	0.3022737	1.4866873	0.95533419	0.0012360886	1.474956	0.9459437	0.24206176	1.3094029	0.99527362	0.10652842	1.4357751	1.3961262	-0.06234361	1.429999	1.4149747	0.27026719	1.3639107	1.4529819	0.10299347	1.284709	1.0612498	-0.1121436	1.3070557	1.0649371	0.35364209	1.375541	0.82372627	-0.17464156	1.4879855	0.85305994	0.36356902
459	1.832	1.7989581	0.04124189	0.068388742	1.0630593	0.04779181	0.16757109	1.6451451	0.071758966	0.032185634	0.96561127	0.16328125	0.22168697	1.6688796	0.092134806	0.12586721	1.0141809	0.18043787	0.13345597	1.5778872	0.035284278	0.08107912	0.91558811	0.19174516	0.16572028	1.6142917	0.4857383	-0.020967357	1.3244364	0.46628764	0.28153849	1.6149586	0.48698412	0.10276896	1.3186287	0.44714941	0.1554539	1.4291902	0.86483665	-0.067964218	1.3767583	0.85848066	0.30171036	1.4922527	0.95602213	0.00076606565	1.4805231	0.94541785	0.24151061	1.3148778	0.99501262	0.10621156	1.4413044	1.3961268	-0.062559124	1.4353985	1.4149587	0.27000215	1.3691723	1.4528459	0.10266337	1.2910566	1.0608599	-0.11235089	1.3124704	1.065015	0.35296124	1.382888	0.82351777	-0.1744817	1.4925346	0.85242493	0.36366169
460	1.836	1.7992397	0.04101139	0.068490966	1.0649521	0.049021689	0.1680749	1.645611	0.071589121	0.032083022	0.9715194	0.1671335	0.2220856	1.6692663	0.091970316	0.12595727	1.0203099	0.18342874	0.1343183	1.5780609	0.0354166	0.080955685	0.92189688	0.19717325	0.16573769	1.6201395	0.48576951	-0.021438569	1.3335559	0.46527065	0.28227573	1.6209654	0.48732686	0.10239966	1.328813	0.4450119	0.15667172	1.4350027	0.86523207	-0.068629759	1.3827755	0.85739175	0.30112384	1.497788	0.95662786	0.00029449894	1.4859816	0.94496981	0.24096809	1.320291	0.99479763	0.10585236	1.4468119	1.3961748	-0.062782226	1.440747	1.4150087	0.26975128	1.3744193	1.4527937	0.10231913	1.2973746	1.0605192	-0.11257837	1.3178522	1.0651483	0.35237383	1.3902947	0.82336591	-0.17430064	1.4969891	0.85185342	0.36377153
461	1.84	1.799446	0.040817916	0.068489798	1.0670242	0.050303022	0.16865494	1.6460002	0.071403822	0.031920104	0.97779085	0.17108671	0.2224846	1.6695678	0.091865709	0.12598613	1.026753	0.1863367	0.13514062	1.5781712	0.035543819	0.080858767	0.92855936	0.20258163	0.16564896	1.6255207	0.48570618	-0.02200033	1.3425543	0.4643137	0.28298426	1.6264258	0.48764398	0.10209323	1.3392484	0.44293451	0.15793033	1.4406556	0.86550082	-0.069290521	1.388748	0.85637104	0.3005321	1.5032926	0.95713859	-0.00016122031	1.491332	0.94460845	0.24043493	1.3256382	0.99465144	0.1054679	1.4523018	1.3962659	-0.063005056	1.4460527	1.4151184	0.26950887	1.3796414	1.452806	0.10198878	1.3036571	1.0602179	-0.112823	1.323129	1.065328	0.35184565	1.3977538	0.82327019	-0.17409599	1.5013968	0.8513449	0.36387516
462	1.844	1.7995703	0.040656243	0.068492668	1.0692441	0.0516001	0.16930564	1.6462469	0.071279721	0.031761602	0.9842009	0.17518547	0.22294314	1.6697829	0.091832609	0.12597181	1.0334754	0.18915158	0.13594017	1.5782189	0.035623725	0.080760221	0.9355424	0.20793142	0.16557311	1.6305431	0.48555241	-0.022623363	1.3514917	0.46343489	0.28365059	1.6312774	0.48791647	0.10186949	1.3497681	0.44098792	0.15892581	1.4461798	0.86567647	-0.069938687	1.3945663	0.85545824	0.2999528	1.5087496	0.95756371	-0.00059025097	1.4965879	0.94434167	0.23992259	1.3309261	0.99458373	0.10506805	1.4577789	1.3963958	-0.063207126	1.4513259	1.4152783	0.2692794	1.3848319	1.4528716	0.10168935	1.309896	1.0599444	-0.11308793	1.3283414	1.0655586	0.35135165	1.405261	0.82323163	-0.17386681	1.5058039	0.85090187	0.36395354
